<svg width="487" height="172" viewBox="0 0 487 172" fill="none" xmlns="http://www.w3.org/2000/svg">
<g clip-path="url(#clip0_1195_2171)">
<path d="M337.728 -85.0415V81.2573C337.727 81.27 337.726 81.2863 337.726 81.3062C337.725 81.3547 337.725 81.4251 337.725 81.5151C337.724 81.6952 337.726 81.956 337.736 82.2886C337.757 82.9543 337.811 83.909 337.941 85.0796C338.202 87.4186 338.769 90.6335 339.998 94.1401C342.172 100.343 346.292 107.672 353.921 113.449C361.557 119.231 372.629 123.397 388.595 123.397C409.862 123.397 422.53 112.89 429.845 102.399C433.493 97.1661 435.81 91.9398 437.216 88.0239C437.919 86.0645 438.396 84.4284 438.697 83.2788C438.803 82.8768 438.886 82.5339 438.951 82.2573H485.829C485.719 82.9061 485.555 83.8198 485.323 84.9624C484.824 87.4226 484.014 90.9436 482.773 95.1714C480.292 103.631 476.095 114.9 469.233 126.162C455.527 148.657 431.214 171.107 388.595 171.107C356.389 171.107 333.693 157.274 318.622 142.216C303.528 127.136 296.108 110.85 294.512 106.093C293.178 102.12 291.6 96.4448 290.81 90.9771C290.414 88.2396 290.215 85.8039 290.116 84.0532C290.067 83.1784 290.042 82.4758 290.029 81.9937C290.023 81.7526 290.02 81.5665 290.019 81.4419C290.018 81.3796 290.018 81.3322 290.018 81.3013V-85.0522L290.015 -85.0913L289.018 -85.0132C290.014 -85.0914 290.015 -85.0924 290.015 -85.0933L290.014 -85.0952C290.014 -85.0971 290.014 -85.0999 290.014 -85.103C290.013 -85.1097 290.012 -85.1195 290.011 -85.1313C290.009 -85.1552 290.006 -85.1897 290.002 -85.2339C289.994 -85.3223 289.98 -85.4508 289.961 -85.6167C289.923 -85.949 289.862 -86.4321 289.769 -87.0435C289.581 -88.2658 289.261 -90.0047 288.732 -92.0884C287.676 -96.2527 285.779 -101.815 282.414 -107.385C275.656 -118.573 263.006 -129.723 239.637 -129.723C217.623 -129.723 205.556 -118.544 199.043 -107.372C195.798 -101.805 193.932 -96.2482 192.877 -92.0884C192.349 -90.0069 192.023 -88.2699 191.828 -87.0493C191.731 -86.439 191.665 -85.957 191.625 -85.6255C191.605 -85.4597 191.591 -85.3308 191.582 -85.2427C191.577 -85.1988 191.574 -85.1647 191.571 -85.1411C191.57 -85.1294 191.569 -85.1203 191.568 -85.1138C191.568 -85.1106 191.569 -85.1079 191.568 -85.106L191.567 -85.103C191.568 -85.1022 191.593 -85.0995 192.563 -85.0132L191.567 -85.1021L191.563 -85.0581V171.107H144.316V-85.0972L144.302 -85.1802L143.316 -85.0132C144.302 -85.18 144.302 -85.1812 144.302 -85.1821V-85.1841C144.301 -85.1862 144.3 -85.1893 144.3 -85.1929C144.299 -85.2 144.297 -85.2104 144.295 -85.2231C144.29 -85.2486 144.283 -85.2854 144.274 -85.3325C144.257 -85.4272 144.23 -85.5653 144.193 -85.7427C144.12 -86.0979 144.006 -86.6127 143.843 -87.2622C143.517 -88.5616 142.994 -90.4021 142.203 -92.5835C140.623 -96.9424 137.965 -102.685 133.65 -108.194C124.979 -119.266 109.694 -129.285 83.4229 -125.427C65.4129 -122.783 55.6849 -111.95 50.4922 -101.825C47.901 -96.7722 46.4334 -91.8907 45.6133 -88.2749C45.2029 -86.4656 44.9537 -84.9686 44.8066 -83.9204C44.7332 -83.3965 44.6851 -82.9843 44.6553 -82.7007C44.6404 -82.5589 44.6298 -82.449 44.623 -82.3735C44.6197 -82.3358 44.6179 -82.306 44.6162 -82.2856C44.6154 -82.2757 44.6147 -82.2679 44.6143 -82.2622C44.614 -82.2594 44.6134 -82.2571 44.6133 -82.2554V-82.2534C44.6132 -82.2527 44.6133 -82.2518 45.6104 -82.1782L44.6133 -82.2515L44.6104 -82.2153V170.037H0.355469V-82.2583L0.342773 -82.3364V-82.3384C0.342361 -82.341 0.340844 -82.3465 0.339844 -82.353C0.33784 -82.3662 0.335123 -82.3872 0.331055 -82.4155C0.322821 -82.4728 0.310741 -82.5607 0.295898 -82.6782C0.266145 -82.9138 0.22513 -83.2686 0.183594 -83.7329C0.100527 -84.6616 0.0142444 -86.03 0.00195312 -87.769C-0.0226183 -91.2483 0.250838 -96.2076 1.4502 -102.095C3.8475 -113.864 9.94272 -129.354 24.7666 -144.178C40.0191 -159.431 54.7641 -167.037 65.668 -170.833C71.1218 -172.732 75.6185 -173.679 78.7412 -174.151C80.3023 -174.387 81.5199 -174.504 82.3418 -174.562C82.7527 -174.591 83.065 -174.606 83.2715 -174.613C83.3745 -174.616 83.4513 -174.618 83.501 -174.619C83.5258 -174.619 83.5445 -174.62 83.5557 -174.62H83.624L83.6807 -174.625L83.6826 -174.626C83.6848 -174.627 83.6884 -174.627 83.6934 -174.627C83.7037 -174.629 83.7203 -174.63 83.7422 -174.632C83.7861 -174.637 83.8533 -174.644 83.9424 -174.653C84.1206 -174.67 84.388 -174.694 84.7383 -174.721C85.4389 -174.776 86.4717 -174.842 87.79 -174.891C90.4274 -174.989 94.2055 -175.016 98.7529 -174.729C107.854 -174.154 120.006 -172.322 132.255 -167.309C140.368 -163.988 149.642 -157.543 156.932 -151.878C160.566 -149.054 163.688 -146.44 165.901 -144.532C167.008 -143.578 167.887 -142.801 168.488 -142.263C168.789 -141.994 169.02 -141.786 169.176 -141.644C169.254 -141.573 169.312 -141.519 169.352 -141.483C169.371 -141.465 169.386 -141.452 169.396 -141.443C169.4 -141.439 169.404 -141.435 169.406 -141.433C169.407 -141.432 169.409 -141.431 169.409 -141.43H169.41L170.274 -140.633L170.922 -141.614C170.922 -141.614 170.923 -141.615 170.924 -141.617C170.926 -141.619 170.929 -141.623 170.933 -141.629C170.941 -141.642 170.954 -141.662 170.973 -141.689C171.01 -141.743 171.067 -141.825 171.145 -141.934C171.3 -142.152 171.536 -142.477 171.856 -142.893C172.497 -143.725 173.47 -144.924 174.793 -146.375C177.439 -149.276 181.481 -153.18 187.043 -157.163C198.161 -165.123 215.366 -173.409 239.687 -174.621C260.998 -175.682 280.658 -167.424 295.039 -158.84C302.221 -154.554 308.065 -150.2 312.11 -146.918C314.133 -145.278 315.705 -143.907 316.77 -142.948C317.301 -142.468 317.707 -142.092 317.978 -141.836C318.113 -141.709 318.215 -141.611 318.282 -141.546C318.316 -141.514 318.341 -141.49 318.357 -141.474C318.365 -141.466 318.371 -141.46 318.375 -141.457C318.377 -141.455 318.379 -141.453 318.38 -141.453V-141.452L319.207 -140.64L319.889 -141.576L319.891 -141.579C319.893 -141.581 319.896 -141.587 319.901 -141.593C319.911 -141.607 319.927 -141.628 319.948 -141.656C319.991 -141.712 320.056 -141.799 320.144 -141.912C320.319 -142.138 320.586 -142.473 320.942 -142.903C321.656 -143.762 322.73 -144.998 324.165 -146.488C327.036 -149.469 331.345 -153.467 337.086 -157.512C348.565 -165.602 365.759 -173.877 388.627 -174.62C428.477 -175.913 452.79 -153.56 467.195 -130.763C474.401 -119.36 479.11 -107.868 482.018 -99.2202C483.471 -94.8983 484.473 -91.2916 485.11 -88.769C485.403 -87.6093 485.618 -86.6783 485.766 -86.0132H438.991C438.937 -86.3068 438.867 -86.671 438.776 -87.0981C438.518 -88.3183 438.101 -90.0555 437.464 -92.1362C436.19 -96.2943 434.031 -101.846 430.488 -107.406C423.383 -118.557 410.705 -129.723 388.595 -129.723C364.525 -129.723 351.747 -118.584 345.038 -107.382C341.699 -101.808 339.875 -96.241 338.885 -92.0737C338.389 -89.9885 338.1 -88.2484 337.936 -87.0249C337.853 -86.4132 337.802 -85.9299 337.771 -85.5972C337.756 -85.431 337.745 -85.302 337.738 -85.2134C337.735 -85.1693 337.733 -85.1347 337.731 -85.1108C337.731 -85.099 337.73 -85.0892 337.729 -85.0825V-85.0718C337.734 -85.0707 337.801 -85.066 338.728 -85.0132L337.729 -85.0698L337.728 -85.0415Z" stroke="#BAA48D" stroke-width="2"/>
</g>
<defs>
<clipPath id="clip0_1195_2171">
<rect width="488" height="172" fill="white" transform="translate(-1 -0.173828)"/>
</clipPath>
</defs>
</svg>
