<svg width="31" height="30" viewBox="0 0 31 30" fill="none" xmlns="http://www.w3.org/2000/svg">
<g clip-path="url(#clip0_382_3380)">
<path d="M24.1687 20.082C24.5546 20.082 24.9247 19.9287 25.1975 19.6559C25.4704 19.383 25.6237 19.0129 25.6237 18.627C25.6237 18.2411 25.4704 17.871 25.1975 17.5982C24.9247 17.3253 24.5546 17.172 24.1687 17.172C23.7828 17.172 23.4127 17.3253 23.1399 17.5982C22.867 17.871 22.7137 18.2411 22.7137 18.627C22.7137 19.0129 22.867 19.383 23.1399 19.6559C23.4127 19.9287 23.7828 20.082 24.1687 20.082ZM8.32419 27.675H4.6417C4.16005 27.6746 3.69825 27.4831 3.35767 27.1425C3.0171 26.802 2.82559 26.3402 2.8252 25.8585V22.3785C2.8252 22.0801 2.70667 21.794 2.49569 21.583C2.28471 21.372 1.99856 21.2535 1.7002 21.2535C1.40183 21.2535 1.11568 21.372 0.9047 21.583C0.693722 21.794 0.575195 22.0801 0.575195 22.3785V25.8585C0.576386 26.9366 1.0052 27.9703 1.76756 28.7326C2.52992 29.495 3.56356 29.9238 4.6417 29.925H8.32419C8.62256 29.925 8.90871 29.8065 9.11969 29.5955C9.33067 29.3845 9.44919 29.0984 9.44919 28.8C9.44919 28.5016 9.33067 28.2155 9.11969 28.0045C8.90871 27.7935 8.62256 27.675 8.32419 27.675ZM1.7002 8.70601C1.99856 8.70601 2.28471 8.58749 2.49569 8.37651C2.70667 8.16553 2.8252 7.87938 2.8252 7.58101V4.14301C2.8252 3.14101 3.6397 2.32501 4.6417 2.32501H8.32419C8.62256 2.32501 8.90871 2.20649 9.11969 1.99551C9.33067 1.78453 9.44919 1.49838 9.44919 1.20001C9.44919 0.901644 9.33067 0.615495 9.11969 0.404517C8.90871 0.193539 8.62256 0.0750122 8.32419 0.0750122H4.6417C3.56342 0.0766002 2.52979 0.505749 1.76747 1.26835C1.00515 2.03094 0.576386 3.06474 0.575195 4.14301V7.58101C0.575195 8.20201 1.0792 8.70601 1.7002 8.70601ZM29.3002 21.252C29.0018 21.252 28.7157 21.3705 28.5047 21.5815C28.2937 21.7925 28.1752 22.0786 28.1752 22.377V25.857C28.1752 26.859 27.3607 27.6735 26.3587 27.6735H23.0842C22.7858 27.6735 22.4997 27.792 22.2887 28.003C22.0777 28.214 21.9592 28.5001 21.9592 28.7985C21.9592 29.0969 22.0777 29.383 22.2887 29.594C22.4997 29.805 22.7858 29.9235 23.0842 29.9235H26.3587C27.4368 29.9223 28.4705 29.4935 29.2328 28.7311C29.9952 27.9688 30.424 26.9351 30.4252 25.857V22.377C30.4252 22.0786 30.3067 21.7925 30.0957 21.5815C29.8847 21.3705 29.5986 21.252 29.3002 21.252ZM26.3587 0.0750122H23.0842C22.7858 0.0750122 22.4997 0.193539 22.2887 0.404517C22.0777 0.615495 21.9592 0.901644 21.9592 1.20001C21.9592 1.49838 22.0777 1.78453 22.2887 1.99551C22.4997 2.20649 22.7858 2.32501 23.0842 2.32501H26.3587C27.3607 2.32501 28.1752 3.14101 28.1752 4.14301V7.58101C28.1752 7.87938 28.2937 8.16553 28.5047 8.37651C28.7157 8.58749 29.0018 8.70601 29.3002 8.70601C29.5986 8.70601 29.8847 8.58749 30.0957 8.37651C30.3067 8.16553 30.4252 7.87938 30.4252 7.58101V4.14301C30.424 3.06474 29.9952 2.03094 29.2329 1.26835C28.4706 0.505749 27.437 0.0766002 26.3587 0.0750122Z" fill="#D0BFAC"/>
<path d="M5.27441 21.8625V25.1055C5.27441 25.7265 5.77841 26.2305 6.39941 26.2305H24.6019C24.9003 26.2305 25.1864 26.1119 25.3974 25.901C25.6084 25.69 25.7269 25.4038 25.7269 25.1055V21.8625C25.7269 21.5641 25.6084 21.278 25.3974 21.067C25.1864 20.856 24.9003 20.7375 24.6019 20.7375C24.3035 20.7375 24.0174 20.856 23.8064 21.067C23.5954 21.278 23.4769 21.5641 23.4769 21.8625V23.9805H7.52441V21.8625C7.53078 20.0281 8.16659 18.2514 9.32558 16.8295C10.4846 15.4076 12.0965 14.4266 13.8919 14.0505C14.1223 14.0031 14.3321 13.8846 14.4917 13.7118C14.6513 13.539 14.7527 13.3205 14.7817 13.0871C14.8106 12.8537 14.7657 12.617 14.6532 12.4104C14.5407 12.2039 14.3662 12.0378 14.1544 11.9355C13.6241 11.6852 13.1758 11.2893 12.8619 10.794C12.548 10.2987 12.3814 9.72438 12.3814 9.13797C12.3814 7.41897 13.7809 6.01947 15.4999 6.01947C17.2189 6.01947 18.6169 7.41897 18.6169 9.13797C18.6173 9.72446 18.4508 10.299 18.1369 10.7943C17.8229 11.2897 17.3745 11.6855 16.8439 11.9355C16.8214 11.946 16.8094 11.967 16.7869 11.979C16.723 12.0179 16.6632 12.0631 16.6084 12.114C16.5529 12.162 16.4974 12.207 16.4539 12.264C16.4134 12.3165 16.3849 12.375 16.3549 12.435C16.3161 12.5046 16.2844 12.578 16.2604 12.654C16.2544 12.678 16.2379 12.696 16.2319 12.72C16.2229 12.7665 16.2349 12.81 16.2319 12.8565C16.2239 12.9322 16.2234 13.0086 16.2304 13.0845C16.2414 13.1614 16.261 13.2369 16.2889 13.3095C16.3039 13.353 16.3024 13.398 16.3219 13.4385C16.3324 13.461 16.3534 13.4745 16.3654 13.4955C16.404 13.5604 16.4497 13.6208 16.5019 13.6755C16.5499 13.731 16.5949 13.785 16.6519 13.8285C16.7044 13.869 16.7614 13.896 16.8214 13.9275C16.8916 13.9672 16.9661 13.9989 17.0434 14.022C17.0659 14.028 17.0839 14.0445 17.1079 14.049C18.7884 14.4041 20.3112 15.2877 21.4534 16.5705C21.5515 16.6811 21.6705 16.7713 21.8035 16.8359C21.9365 16.9004 22.081 16.938 22.2286 16.9465C22.3763 16.955 22.5241 16.9342 22.6637 16.8854C22.8032 16.8366 22.9318 16.7606 23.0419 16.662C23.1524 16.5638 23.2424 16.4448 23.3069 16.3117C23.3713 16.1787 23.4088 16.0343 23.4173 15.8867C23.4258 15.7391 23.4051 15.5914 23.3564 15.4518C23.3077 15.3123 23.2319 15.1837 23.1334 15.0735C22.1582 13.995 20.9662 13.1348 19.6354 12.549C20.4335 11.5917 20.8694 10.3843 20.8669 9.13797C20.8657 7.71478 20.2999 6.3502 19.2937 5.34371C18.2875 4.33722 16.9231 3.77106 15.4999 3.76947C14.0765 3.77066 12.7117 4.33665 11.7051 5.34318C10.6986 6.34971 10.1326 7.71452 10.1314 9.13797C10.1314 10.404 10.5694 11.589 11.3389 12.525C7.72691 14.145 5.27441 17.7855 5.27441 21.8625Z" fill="#D0BFAC"/>
</g>
<defs>
<clipPath id="clip0_382_3380">
<rect width="30" height="30" fill="white" transform="translate(0.5)"/>
</clipPath>
</defs>
</svg>
