<svg width="31" height="30" viewBox="0 0 31 30" fill="none" xmlns="http://www.w3.org/2000/svg">
<g clip-path="url(#clip0_382_3318)">
<path d="M0.5 6.5625V23.4375C0.5 25.5088 2.17871 27.1875 4.25 27.1875H26.75C28.8213 27.1875 30.5 25.5088 30.5 23.4375V6.5625C30.5 4.49121 28.8213 2.8125 26.75 2.8125H4.25C2.17871 2.8125 0.5 4.49121 0.5 6.5625ZM5.1875 4.6875H7.53125C7.78906 4.6875 8 4.89844 8 5.15625V24.8438C8 25.1016 7.78906 25.3125 7.53125 25.3125H5.1875C3.63477 25.3125 2.375 24.0527 2.375 22.5V7.5C2.375 5.94727 3.63477 4.6875 5.1875 4.6875ZM20.6562 25.3125H10.3438C10.0859 25.3125 9.875 25.1016 9.875 24.8438V5.15625C9.875 4.89844 10.0859 4.6875 10.3438 4.6875H20.6562C20.9141 4.6875 21.125 4.89844 21.125 5.15625V24.8438C21.125 25.1016 20.9141 25.3125 20.6562 25.3125ZM25.8125 25.3125H23.4688C23.2109 25.3125 23 25.1016 23 24.8438V5.15625C23 4.89844 23.2109 4.6875 23.4688 4.6875H25.8125C27.3652 4.6875 28.625 5.94727 28.625 7.5V22.5C28.625 24.0527 27.3652 25.3125 25.8125 25.3125ZM4.25 6.5625C3.99219 6.5625 3.78125 6.77344 3.78125 7.03125V8.90625C3.78125 9.16406 3.99219 9.375 4.25 9.375H6.125C6.38281 9.375 6.59375 9.16406 6.59375 8.90625V7.03125C6.59375 6.77344 6.38281 6.5625 6.125 6.5625H4.25ZM4.25 11.25C3.99219 11.25 3.78125 11.4609 3.78125 11.7188V13.5938C3.78125 13.8516 3.99219 14.0625 4.25 14.0625H6.125C6.38281 14.0625 6.59375 13.8516 6.59375 13.5938V11.7188C6.59375 11.4609 6.38281 11.25 6.125 11.25H4.25ZM4.25 15.9375C3.99219 15.9375 3.78125 16.1484 3.78125 16.4062V18.2812C3.78125 18.5391 3.99219 18.75 4.25 18.75H6.125C6.38281 18.75 6.59375 18.5391 6.59375 18.2812V16.4062C6.59375 16.1484 6.38281 15.9375 6.125 15.9375H4.25ZM4.25 20.625C3.99219 20.625 3.78125 20.8359 3.78125 21.0938V22.9688C3.78125 23.2266 3.99219 23.4375 4.25 23.4375H6.125C6.38281 23.4375 6.59375 23.2266 6.59375 22.9688V21.0938C6.59375 20.8359 6.38281 20.625 6.125 20.625H4.25ZM24.875 6.5625C24.6172 6.5625 24.4062 6.77344 24.4062 7.03125V8.90625C24.4062 9.16406 24.6172 9.375 24.875 9.375H26.75C27.0078 9.375 27.2188 9.16406 27.2188 8.90625V7.03125C27.2188 6.77344 27.0078 6.5625 26.75 6.5625H24.875ZM24.875 11.25C24.6172 11.25 24.4062 11.4609 24.4062 11.7188V13.5938C24.4062 13.8516 24.6172 14.0625 24.875 14.0625H26.75C27.0078 14.0625 27.2188 13.8516 27.2188 13.5938V11.7188C27.2188 11.4609 27.0078 11.25 26.75 11.25H24.875ZM24.875 15.9375C24.6172 15.9375 24.4062 16.1484 24.4062 16.4062V18.2812C24.4062 18.5391 24.6172 18.75 24.875 18.75H26.75C27.0078 18.75 27.2188 18.5391 27.2188 18.2812V16.4062C27.2188 16.1484 27.0078 15.9375 26.75 15.9375H24.875ZM24.875 20.625C24.6172 20.625 24.4062 20.8359 24.4062 21.0938V22.9688C24.4062 23.2266 24.6172 23.4375 24.875 23.4375H26.75C27.0078 23.4375 27.2188 23.2266 27.2188 22.9688V21.0938C27.2188 20.8359 27.0078 20.625 26.75 20.625H24.875Z" fill="#D0BFAC"/>
</g>
<defs>
<clipPath id="clip0_382_3318">
<rect width="30" height="30" fill="white" transform="translate(0.5)"/>
</clipPath>
</defs>
</svg>
