<svg width="30" height="30" viewBox="0 0 30 30" fill="none" xmlns="http://www.w3.org/2000/svg">
<path d="M27.0297 26.2872H25.7674V13.5149C25.7658 12.5307 25.3741 11.5872 24.6782 10.8913C23.9822 10.1953 23.0387 9.80361 22.0545 9.80204H19.901V5.91986C19.901 3.88224 18.0773 2.22778 15.8377 2.22778H11.1921C8.95251 2.22778 7.12875 3.88224 7.12875 5.91986V13.6634C6.68026 13.4632 6.17275 13.4394 5.70752 13.5969C5.24228 13.7544 4.85353 14.0815 4.61885 14.5129L2.88122 17.7387C2.46913 18.4992 2.3019 19.3684 2.40238 20.2275C2.50286 21.0866 2.86615 21.8938 3.44261 22.5387C4.01925 23.1856 4.79263 23.625 5.6436 23.7892V26.2872H2.97033C2.77341 26.2872 2.58458 26.3655 2.44535 26.5047C2.30612 26.644 2.22791 26.8328 2.22791 27.0298C2.22791 27.2267 2.30612 27.4155 2.44535 27.5548C2.58458 27.694 2.77341 27.7723 2.97033 27.7723H27.0297C27.2267 27.7723 27.4155 27.694 27.5547 27.5548C27.694 27.4155 27.7722 27.2267 27.7722 27.0298C27.7722 26.8328 27.694 26.644 27.5547 26.5047C27.4155 26.3655 27.2267 26.2872 27.0297 26.2872ZM22.0545 11.2872C22.6453 11.2872 23.212 11.5219 23.6297 11.9397C24.0475 12.3575 24.2822 12.9241 24.2822 13.5149V15.0001H22.2773C22.1797 15 22.0832 15.0192 21.993 15.0565C21.9029 15.0939 21.8211 15.1485 21.7521 15.2175C21.6831 15.2865 21.6284 15.3683 21.5911 15.4584C21.5538 15.5485 21.5345 15.6451 21.5345 15.7426C21.5345 15.8402 21.5538 15.9367 21.5911 16.0268C21.6284 16.1169 21.6831 16.1988 21.7521 16.2678C21.8211 16.3367 21.9029 16.3914 21.993 16.4287C22.0832 16.466 22.1797 16.4852 22.2773 16.4852H24.2792V18.2674H22.2773C22.0803 18.2674 21.8914 18.3456 21.7522 18.4849C21.6129 18.6241 21.5347 18.813 21.5347 19.01C21.5347 19.2069 21.6129 19.3958 21.7522 19.535C21.8914 19.6743 22.0803 19.7525 22.2773 19.7525H24.2792V21.8317H22.2773C22.1797 21.8317 22.0832 21.8509 21.993 21.8882C21.9029 21.9255 21.8211 21.9802 21.7521 22.0492C21.6831 22.1181 21.6284 22.2 21.5911 22.2901C21.5538 22.3802 21.5345 22.4768 21.5345 22.5743C21.5345 22.6718 21.5538 22.7684 21.5911 22.8585C21.6284 22.9486 21.6831 23.0305 21.7521 23.0995C21.8211 23.1684 21.9029 23.2231 21.993 23.2604C22.0832 23.2977 22.1797 23.3169 22.2773 23.3169H24.2792V26.2872H19.901V11.2872H22.0545ZM4.54756 21.5466C4.17586 21.1295 3.94189 20.6079 3.87757 20.0529C3.81325 19.498 3.92171 18.9367 4.18815 18.4456L5.94063 15.2288C5.97864 15.1561 6.03584 15.0953 6.10602 15.0529C6.17619 15.0104 6.25665 14.9881 6.33865 14.9882C6.42082 14.9859 6.50206 15.006 6.57372 15.0463C6.64538 15.0866 6.70478 15.1455 6.74558 15.2169L8.54558 18.3565C8.84475 18.87 8.96778 19.4672 8.89592 20.0571C8.82406 20.647 8.56125 21.1972 8.14756 21.6238C7.92353 21.86 7.65484 22.0494 7.35707 22.1809C7.0593 22.3125 6.73837 22.3836 6.41291 22.3902H6.33568C5.99538 22.3815 5.66063 22.302 5.35277 22.1567C5.0449 22.0115 4.77067 21.8037 4.54756 21.5466ZM7.12875 23.7892C7.9343 23.6247 8.66962 23.2161 9.23469 22.6189C9.86167 21.9605 10.2584 21.1167 10.3655 20.2138C10.4726 19.311 10.2843 18.3978 9.82875 17.611L8.6139 15.508V5.91986C8.6139 4.70204 9.76934 3.71293 11.1921 3.71293H15.8377C17.2604 3.71293 18.4159 4.70204 18.4159 5.91986V26.2872H16.4852V22.2773C16.4852 21.2139 15.5377 20.3466 14.3703 20.3466H12.6594C11.4921 20.3466 10.5446 21.2139 10.5446 22.2773V26.2872H7.12875V23.7892ZM15 26.2872H12.0297V22.2773C12.0297 22.0397 12.3268 21.8317 12.6594 21.8317H14.3703C14.706 21.8317 15 22.0397 15 22.2773V26.2872Z" fill="#D0BFAC"/>
<path d="M11.2871 8.31681H15.7426C15.9395 8.31677 16.1283 8.23852 16.2676 8.09927C16.4068 7.96001 16.485 7.77116 16.485 7.57424C16.485 7.37732 16.4068 7.18847 16.2676 7.04921C16.1283 6.90996 15.9395 6.8317 15.7426 6.83167H11.2871C11.0902 6.8317 10.9014 6.90996 10.7621 7.04921C10.6229 7.18847 10.5447 7.37732 10.5447 7.57424C10.5447 7.77116 10.6229 7.96001 10.7621 8.09927C10.9014 8.23852 11.0902 8.31677 11.2871 8.31681ZM11.2871 12.1782H15.7426C15.9395 12.1782 16.1283 12.0999 16.2676 11.9607C16.4068 11.8214 16.485 11.6325 16.485 11.4356C16.485 11.2387 16.4068 11.0499 16.2676 10.9106C16.1283 10.7713 15.9395 10.6931 15.7426 10.6931H11.2871C11.0902 10.6931 10.9014 10.7713 10.7621 10.9106C10.6229 11.0499 10.5447 11.2387 10.5447 11.4356C10.5447 11.6325 10.6229 11.8214 10.7621 11.9607C10.9014 12.0999 11.0902 12.1782 11.2871 12.1782ZM11.2871 16.0396H15.7426C15.9395 16.0396 16.1284 15.9613 16.2677 15.8221C16.4069 15.6828 16.4851 15.494 16.4851 15.297C16.4851 15.1001 16.4069 14.9112 16.2677 14.7719C16.1284 14.6327 15.9395 14.5544 15.7426 14.5544H11.2871C11.0902 14.5544 10.9013 14.6327 10.7621 14.7719C10.6228 14.9112 10.5446 15.1001 10.5446 15.297C10.5446 15.494 10.6228 15.6828 10.7621 15.8221C10.9013 15.9613 11.0902 16.0396 11.2871 16.0396Z" fill="#D0BFAC"/>
</svg>
