<svg width="31" height="30" viewBox="0 0 31 30" fill="none" xmlns="http://www.w3.org/2000/svg">
<path d="M15.5055 30H15.4934C15.2571 30 15.0249 29.9388 14.8193 29.8224L3.01092 23.0044C2.80217 22.8833 2.62901 22.7094 2.50888 22.5001C2.38875 22.2908 2.32591 22.0535 2.32667 21.8122V8.18667C2.32628 7.946 2.38925 7.70946 2.50925 7.50083C2.62924 7.29221 2.80203 7.11884 3.01025 6.99815L14.8145 0.182536C15.0231 0.0629314 15.2593 0 15.4996 0C15.74 0 15.9762 0.0629314 16.1847 0.182536L27.988 6.99747C28.197 7.11841 28.3703 7.29232 28.4905 7.50164C28.6108 7.71096 28.6737 7.9483 28.673 8.1897V21.8155C28.6733 22.0564 28.6101 22.2932 28.4898 22.5019C28.3695 22.7106 28.1963 22.8839 27.9877 23.0044L16.1847 29.8193C15.9777 29.9372 15.7437 29.9994 15.5055 30ZM15.4486 1.45735L3.74709 8.27228L3.79799 21.8155L15.4995 28.5152L27.2519 21.7299L27.2016 8.18667L15.4486 1.45735Z" fill="#D0BFAC"/>
<path d="M15.5031 21.795H15.4883C15.2653 21.7914 15.0464 21.7342 14.8502 21.6281L10.1029 18.8901C9.89902 18.7722 9.72996 18.6025 9.61281 18.3982C9.49566 18.1939 9.4346 17.9623 9.43581 17.7268V12.2706C9.43538 12.0361 9.49678 11.8055 9.61383 11.6023C9.73089 11.399 9.89945 11.2302 10.1025 11.1128L14.8317 8.37712C15.0347 8.26036 15.2648 8.19891 15.4991 8.19891C15.7333 8.19891 15.9634 8.26036 16.1665 8.37712L20.8963 11.1074C21.0995 11.2251 21.2682 11.3942 21.3854 11.5977C21.5025 11.8013 21.564 12.0321 21.5637 12.2669V17.7245C21.5635 17.9591 21.5018 18.1895 21.3847 18.3927C21.2676 18.596 21.0992 18.7649 20.8963 18.8827L16.1682 21.6241C15.9637 21.7342 15.7354 21.7929 15.5031 21.795ZM10.9071 17.654L15.5062 20.3081L20.0903 17.6483V12.3421L15.5001 9.69103L10.9071 12.3475V17.654Z" fill="#D0BFAC"/>
<path d="M10.4915 18.5257C10.3584 18.5244 10.229 18.4814 10.1217 18.4026C10.0143 18.3239 9.93433 18.2135 9.89305 18.0869C9.85177 17.9604 9.85124 17.824 9.89154 17.6971C9.93184 17.5703 10.0109 17.4592 10.1177 17.3797L15.1256 13.6826C15.2609 13.5826 15.4304 13.5404 15.5968 13.5654C15.7632 13.5903 15.9129 13.6803 16.0129 13.8156C16.113 13.9509 16.1552 14.1204 16.1302 14.2868C16.1053 14.4532 16.0153 14.6029 15.88 14.703L10.8593 18.399C10.753 18.4787 10.6243 18.523 10.4915 18.5257ZM15.4997 29.1819C15.3107 29.1838 15.1269 29.1204 14.9793 29.0023C14.9137 28.9511 14.8604 28.886 14.8232 28.8117C14.7859 28.7373 14.7657 28.6556 14.7639 28.5725V21.0436C14.7639 20.7066 15.0932 20.4369 15.4997 20.4369C15.9062 20.4369 16.2352 20.7093 16.2352 21.0436V28.5738C16.2333 28.6567 16.2129 28.7382 16.1757 28.8123C16.1384 28.8864 16.0852 28.9513 16.0198 29.0023C15.8722 29.1199 15.6885 29.1829 15.4997 29.1806V29.1819Z" fill="#D0BFAC"/>
<path d="M20.5077 18.5257C20.3706 18.5257 20.2372 18.4813 20.1275 18.399L15.1257 14.703C15.0449 14.644 14.9792 14.5668 14.934 14.4775C14.8888 14.3883 14.8655 14.2896 14.8658 14.1896V9.21947C14.8696 9.05389 14.9381 8.89638 15.0565 8.78062C15.175 8.66486 15.334 8.60005 15.4996 8.60005C15.6653 8.60005 15.8243 8.66486 15.9428 8.78062C16.0612 8.89638 16.1297 9.05389 16.1335 9.21947V13.8711L20.8819 17.3766C20.9882 17.4564 21.0669 17.5675 21.107 17.6943C21.147 17.8211 21.1463 17.9572 21.1051 18.0836C21.0638 18.21 20.984 18.3203 20.8769 18.3991C20.7698 18.4778 20.6407 18.521 20.5077 18.5227V18.5257ZM2.6897 8.40611L3.45468 7.14886L10.8983 11.6782L10.1333 12.9354L2.6897 8.40611ZM27.6618 7.1493L28.4269 8.40652L20.9637 12.9478L20.1987 11.6906L27.6618 7.1493Z" fill="#D0BFAC"/>
</svg>
