<svg width="30" height="30" viewBox="0 0 30 30" fill="none" xmlns="http://www.w3.org/2000/svg">
<path d="M4.6875 26.25H2.8125V3.75C2.8125 3.25272 3.01004 2.77581 3.36167 2.42417C3.71331 2.07254 4.19022 1.875 4.6875 1.875H15.9375C16.4348 1.875 16.9117 2.07254 17.2633 2.42417C17.615 2.77581 17.8125 3.25272 17.8125 3.75V26.25H15.9375V3.75H4.6875V26.25ZM25.3125 14.0625H27.1875V26.25H25.3125V14.0625ZM2.34375 28.125C2.09511 28.125 1.85665 28.0262 1.68084 27.8504C1.50502 27.6746 1.40625 27.4361 1.40625 27.1875C1.40625 26.9389 1.50502 26.7004 1.68084 26.5246C1.85665 26.3488 2.09511 26.25 2.34375 26.25H27.1875C27.4361 26.25 27.6746 26.3488 27.8504 26.5246C28.0262 26.7004 28.125 26.9389 28.125 27.1875C28.125 27.4361 28.0262 27.6746 27.8504 27.8504C27.6746 28.0262 27.4361 28.125 27.1875 28.125H2.34375Z" fill="#D0BFAC"/>
<path d="M28.4663 14.1262C28.581 14.1711 28.6858 14.238 28.7746 14.3234C28.8635 14.4087 28.9347 14.5106 28.9841 14.6235C29.0336 14.7363 29.0603 14.8577 29.0628 14.9809C29.0653 15.1041 29.0436 15.2265 28.9988 15.3413C28.9539 15.456 28.887 15.5608 28.8017 15.6496C28.7163 15.7385 28.6144 15.8097 28.5015 15.8591C28.3887 15.9086 28.2673 15.9353 28.1441 15.9378C28.0209 15.9403 27.8985 15.9186 27.7838 15.8737L16.5281 11.4797C16.2997 11.387 16.117 11.2082 16.0195 10.9818C15.9219 10.7554 15.9175 10.4997 16.0071 10.2701C16.0967 10.0405 16.2732 9.85539 16.4982 9.75489C16.7233 9.65439 16.9789 9.64657 17.2097 9.73312L28.4672 14.1262H28.4663ZM20.6363 17.1684C20.8849 17.1684 21.1233 17.2672 21.2992 17.443C21.475 17.6188 21.5738 17.8573 21.5738 18.1059C21.5738 18.3546 21.475 18.593 21.2992 18.7689C21.1233 18.9447 20.8849 19.0434 20.6363 19.0434H16.8675C16.6189 19.0434 16.3804 18.9447 16.2046 18.7689C16.0288 18.593 15.93 18.3546 15.93 18.1059C15.93 17.8573 16.0288 17.6188 16.2046 17.443C16.3804 17.2672 16.6189 17.1684 16.8675 17.1684H20.6363ZM20.6363 20.9184C20.8849 20.9184 21.1233 21.0172 21.2992 21.193C21.475 21.3688 21.5738 21.6073 21.5738 21.8559C21.5738 22.1046 21.475 22.343 21.2992 22.5189C21.1233 22.6947 20.8849 22.7934 20.6363 22.7934H16.8675C16.6189 22.7934 16.3804 22.6947 16.2046 22.5189C16.0288 22.343 15.93 22.1046 15.93 21.8559C15.93 21.6073 16.0288 21.3688 16.2046 21.193C16.3804 21.0172 16.6189 20.9184 16.8675 20.9184H20.6363ZM9.375 16.875C9.375 17.1236 9.27623 17.3621 9.10041 17.5379C8.9246 17.7137 8.68614 17.8125 8.4375 17.8125C8.18886 17.8125 7.9504 17.7137 7.77459 17.5379C7.59877 17.3621 7.5 17.1236 7.5 16.875V15C7.5 14.7514 7.59877 14.5129 7.77459 14.3371C7.9504 14.1613 8.18886 14.0625 8.4375 14.0625C8.68614 14.0625 8.9246 14.1613 9.10041 14.3371C9.27623 14.5129 9.375 14.7514 9.375 15V16.875ZM9.375 10.3125C9.375 10.5611 9.27623 10.7996 9.10041 10.9754C8.9246 11.1512 8.68614 11.25 8.4375 11.25C8.18886 11.25 7.9504 11.1512 7.77459 10.9754C7.59877 10.7996 7.5 10.5611 7.5 10.3125V8.4375C7.5 8.18886 7.59877 7.9504 7.77459 7.77459C7.9504 7.59877 8.18886 7.5 8.4375 7.5C8.68614 7.5 8.9246 7.59877 9.10041 7.77459C9.27623 7.9504 9.375 8.18886 9.375 8.4375V10.3125ZM13.125 10.3125C13.125 10.5611 13.0262 10.7996 12.8504 10.9754C12.6746 11.1512 12.4361 11.25 12.1875 11.25C11.9389 11.25 11.7004 11.1512 11.5246 10.9754C11.3488 10.7996 11.25 10.5611 11.25 10.3125V8.4375C11.25 8.18886 11.3488 7.9504 11.5246 7.77459C11.7004 7.59877 11.9389 7.5 12.1875 7.5C12.4361 7.5 12.6746 7.59877 12.8504 7.77459C13.0262 7.9504 13.125 8.18886 13.125 8.4375V10.3125ZM13.125 16.875C13.125 17.1236 13.0262 17.3621 12.8504 17.5379C12.6746 17.7137 12.4361 17.8125 12.1875 17.8125C11.9389 17.8125 11.7004 17.7137 11.5246 17.5379C11.3488 17.3621 11.25 17.1236 11.25 16.875V15C11.25 14.7514 11.3488 14.5129 11.5246 14.3371C11.7004 14.1613 11.9389 14.0625 12.1875 14.0625C12.4361 14.0625 12.6746 14.1613 12.8504 14.3371C13.0262 14.5129 13.125 14.7514 13.125 15V16.875ZM9.375 27.1875H7.5V20.9184H13.4063V27.1875H11.5313V22.7934H9.375V27.1875Z" fill="#D0BFAC"/>
</svg>
