<svg width="49" height="48" viewBox="0 0 49 48" fill="none" xmlns="http://www.w3.org/2000/svg">
<path d="M22.732 4.51C21.259 4.59719 19.875 5.24364 18.8627 6.31722C17.8505 7.39081 17.2865 8.81046 17.286 10.286L17.284 11.356H11.928C11.2817 11.3568 10.6418 11.4851 10.0452 11.7335C9.44849 11.9819 8.90669 12.3456 8.45078 12.8038C7.99487 13.2619 7.63382 13.8055 7.38831 14.4034C7.14279 15.0012 7.01763 15.6417 7.02 16.288L7.01 22.8C7.00974 22.9972 7.04834 23.1924 7.12361 23.3746C7.19887 23.5569 7.30932 23.7225 7.44863 23.862C7.58795 24.0015 7.75339 24.1121 7.93551 24.1876C8.11763 24.2631 8.31285 24.302 8.51 24.302H11.074C12.8 24.302 14.202 25.704 14.202 27.43C14.202 29.156 12.8 30.56 11.074 30.56H8.508C8.11052 30.56 7.72929 30.7178 7.44805 30.9986C7.1668 31.2795 7.00853 31.6605 7.008 32.058L7 38.572C6.99974 39.2193 7.12701 39.8604 7.37455 40.4585C7.62209 41.0566 7.98504 41.6001 8.44267 42.0579C8.9003 42.5157 9.44365 42.8789 10.0417 43.1267C10.6397 43.3745 11.2807 43.502 11.928 43.502H18.442C18.8398 43.502 19.2214 43.344 19.5027 43.0627C19.784 42.7814 19.942 42.3998 19.942 42.002V39.43C19.9773 38.6238 20.3224 37.8624 20.9053 37.3045C21.4883 36.7465 22.2641 36.4351 23.071 36.4351C23.8779 36.4351 24.6537 36.7465 25.2367 37.3045C25.8196 37.8624 26.1647 38.6238 26.2 39.43V42C26.2 42.828 26.872 43.5 27.7 43.5H34.214L34.538 43.49C35.7867 43.4077 36.9572 42.8535 37.8123 41.9398C38.6673 41.0261 39.1427 39.8214 39.142 38.57V33.214H40.214C41.7484 33.2135 43.2198 32.6037 44.3047 31.5187C45.3897 30.4338 45.9995 28.9624 46 27.428L45.99 27.088C45.9028 25.615 45.2564 24.231 44.1828 23.2187C43.1092 22.2065 41.6895 21.6425 40.214 21.642H39.142V16.286L39.132 15.962C39.0498 14.7137 38.4958 13.5434 37.5825 12.6884C36.6693 11.8335 35.465 11.3578 34.214 11.358L28.856 11.356V10.286C28.8555 8.75197 28.246 7.28089 27.1614 6.19597C26.0769 5.11106 24.606 4.50106 23.072 4.5L22.732 4.51ZM23.072 7.5C24.608 7.5 25.858 8.748 25.858 10.286V12.858C25.858 13.686 26.528 14.358 27.358 14.358H34.214C35.28 14.358 36.142 15.218 36.142 16.286V23.142C36.142 23.972 36.814 24.642 37.642 24.642H40.214C40.9346 24.6693 41.6166 24.9748 42.1168 25.4943C42.617 26.0138 42.8964 26.7069 42.8964 27.428C42.8964 28.1491 42.617 28.8422 42.1168 29.3617C41.6166 29.8812 40.9346 30.1867 40.214 30.214H37.642C37.2442 30.214 36.8626 30.372 36.5813 30.6533C36.3 30.9346 36.142 31.3162 36.142 31.714V38.572L36.13 38.796C36.0751 39.2655 35.8496 39.6985 35.4963 40.0127C35.1431 40.3268 34.6867 40.5003 34.214 40.5H29.2V39.428C29.1989 37.8031 28.553 36.245 27.404 35.096C26.255 33.947 24.6969 33.3011 23.072 33.3L22.712 33.31C21.1513 33.4023 19.6848 34.0872 18.6123 35.2248C17.5398 36.3623 16.9423 37.8666 16.942 39.43V40.5H11.928L11.704 40.488C11.2345 40.4331 10.8015 40.2076 10.4873 39.8543C10.1732 39.5011 9.99974 39.0447 10 38.572L10.006 33.556H11.072C12.6969 33.5549 14.255 32.909 15.404 31.76C16.553 30.611 17.1989 29.0529 17.2 27.428L17.19 27.068C17.0972 25.5077 16.4121 24.0417 15.2746 22.9696C14.1371 21.8975 12.6331 21.3003 11.07 21.3L10.01 21.298L10.018 16.288C10.018 15.214 10.868 14.358 11.928 14.358H18.786C19.1838 14.358 19.5654 14.2 19.8467 13.9187C20.128 13.6374 20.286 13.2558 20.286 12.858V10.286C20.286 8.748 21.534 7.5 23.072 7.5Z" fill="#D0BFAC"/>
</svg>
