<svg width="31" height="30" viewBox="0 0 31 30" fill="none" xmlns="http://www.w3.org/2000/svg">
<g clip-path="url(#clip0_800_513)">
<path d="M24.1685 20.0819C24.5543 20.0819 24.9244 19.9287 25.1973 19.6558C25.4702 19.3829 25.6235 19.0128 25.6235 18.6269C25.6235 18.2411 25.4702 17.871 25.1973 17.5981C24.9244 17.3252 24.5543 17.1719 24.1685 17.1719C23.7826 17.1719 23.4125 17.3252 23.1396 17.5981C22.8667 17.871 22.7135 18.2411 22.7135 18.6269C22.7135 19.0128 22.8667 19.3829 23.1396 19.6558C23.4125 19.9287 23.7826 20.0819 24.1685 20.0819ZM8.32395 27.6749H4.64145C4.15981 27.6746 3.698 27.483 3.35743 27.1425C3.01686 26.8019 2.82535 26.3401 2.82495 25.8584V22.3784C2.82495 22.0801 2.70642 21.7939 2.49545 21.583C2.28447 21.372 1.99832 21.2535 1.69995 21.2535C1.40158 21.2535 1.11543 21.372 0.904456 21.583C0.693478 21.7939 0.574951 22.0801 0.574951 22.3784V25.8584C0.576142 26.9366 1.00496 27.9702 1.76732 28.7326C2.52968 29.4949 3.56331 29.9238 4.64145 29.9249H8.32395C8.62232 29.9249 8.90847 29.8064 9.11945 29.5954C9.33042 29.3845 9.44895 29.0983 9.44895 28.7999C9.44895 28.5016 9.33042 28.2154 9.11945 28.0045C8.90847 27.7935 8.62232 27.6749 8.32395 27.6749ZM1.69995 8.70595C1.99832 8.70595 2.28447 8.58742 2.49545 8.37645C2.70642 8.16547 2.82495 7.87932 2.82495 7.58095V4.14295C2.82495 3.14095 3.63945 2.32495 4.64145 2.32495H8.32395C8.62232 2.32495 8.90847 2.20642 9.11945 1.99545C9.33042 1.78447 9.44895 1.49832 9.44895 1.19995C9.44895 0.901583 9.33042 0.615434 9.11945 0.404456C8.90847 0.193478 8.62232 0.0749512 8.32395 0.0749512H4.64145C3.56318 0.0765391 2.52954 0.505688 1.76723 1.26829C1.00491 2.03088 0.576141 3.06468 0.574951 4.14295V7.58095C0.574951 8.20195 1.07895 8.70595 1.69995 8.70595ZM29.2999 21.2519C29.0016 21.2519 28.7154 21.3705 28.5045 21.5815C28.2935 21.7924 28.1749 22.0786 28.1749 22.3769V25.8569C28.1749 26.8589 27.3604 27.6735 26.3584 27.6735H23.084C22.7856 27.6735 22.4994 27.792 22.2885 28.003C22.0775 28.2139 21.959 28.5001 21.959 28.7984C21.959 29.0968 22.0775 29.383 22.2885 29.5939C22.4994 29.8049 22.7856 29.9234 23.084 29.9234H26.3584C27.4366 29.9223 28.4702 29.4934 29.2326 28.7311C29.9949 27.9687 30.4238 26.9351 30.4249 25.8569V22.3769C30.4249 22.0786 30.3064 21.7924 30.0954 21.5815C29.8845 21.3705 29.5983 21.2519 29.2999 21.2519ZM26.3584 0.0749512H23.084C22.7856 0.0749512 22.4994 0.193478 22.2885 0.404456C22.0775 0.615434 21.959 0.901583 21.959 1.19995C21.959 1.49832 22.0775 1.78447 22.2885 1.99545C22.4994 2.20642 22.7856 2.32495 23.084 2.32495H26.3584C27.3604 2.32495 28.1749 3.14095 28.1749 4.14295V7.58095C28.1749 7.87932 28.2935 8.16547 28.5045 8.37645C28.7154 8.58742 29.0016 8.70595 29.2999 8.70595C29.5983 8.70595 29.8845 8.58742 30.0954 8.37645C30.3064 8.16547 30.4249 7.87932 30.4249 7.58095V4.14295C30.4238 3.06468 29.995 2.03088 29.2327 1.26829C28.4704 0.505688 27.4367 0.0765391 26.3584 0.0749512Z" fill="#D0BFAC"/>
<path d="M5.27454 21.8625V25.1055C5.27454 25.7265 5.77854 26.2305 6.39954 26.2305H24.602C24.9004 26.2305 25.1866 26.112 25.3975 25.901C25.6085 25.69 25.727 25.4039 25.727 25.1055V21.8625C25.727 21.5642 25.6085 21.278 25.3975 21.067C25.1866 20.8561 24.9004 20.7375 24.602 20.7375C24.3037 20.7375 24.0175 20.8561 23.8065 21.067C23.5956 21.278 23.477 21.5642 23.477 21.8625V23.9805H7.52454V21.8625C7.5309 20.0281 8.16672 18.2515 9.3257 16.8296C10.4847 15.4077 12.0966 14.4267 13.892 14.0505C14.1224 14.0031 14.3322 13.8847 14.4918 13.7119C14.6514 13.5391 14.7528 13.3206 14.7818 13.0872C14.8108 12.8537 14.7658 12.6171 14.6533 12.4105C14.5408 12.2039 14.3664 12.0378 14.1545 11.9355C13.6242 11.6853 13.176 11.2894 12.862 10.7941C12.5481 10.2988 12.3815 9.72444 12.3815 9.13803C12.3815 7.41903 13.781 6.01953 15.5 6.01953C17.219 6.01953 18.617 7.41903 18.617 9.13803C18.6175 9.72452 18.451 10.299 18.137 10.7944C17.823 11.2898 17.3746 11.6856 16.844 11.9355C16.8215 11.946 16.8095 11.967 16.787 11.979C16.7232 12.0179 16.6634 12.0632 16.6085 12.114C16.553 12.162 16.4975 12.207 16.454 12.264C16.4135 12.3165 16.385 12.375 16.355 12.435C16.3162 12.5046 16.2845 12.578 16.2605 12.654C16.2545 12.678 16.238 12.696 16.232 12.72C16.223 12.7665 16.235 12.81 16.232 12.8565C16.224 12.9323 16.2235 13.0087 16.2305 13.0845C16.2415 13.1615 16.2611 13.237 16.289 13.3095C16.304 13.353 16.3025 13.398 16.322 13.4385C16.3325 13.461 16.3535 13.4745 16.3655 13.4955C16.4041 13.5605 16.4499 13.6209 16.502 13.6755C16.55 13.731 16.595 13.785 16.652 13.8285C16.7045 13.869 16.7615 13.896 16.8215 13.9275C16.8918 13.9673 16.9662 13.999 17.0435 14.022C17.066 14.028 17.084 14.0445 17.108 14.049C18.7885 14.4042 20.3113 15.2877 21.4535 16.5705C21.5516 16.6812 21.6706 16.7714 21.8036 16.8359C21.9367 16.9005 22.0811 16.9381 22.2288 16.9466C22.3764 16.9551 22.5242 16.9343 22.6638 16.8855C22.8034 16.8366 22.9319 16.7607 23.042 16.662C23.1525 16.5639 23.2426 16.4448 23.307 16.3118C23.3714 16.1788 23.4089 16.0343 23.4174 15.8868C23.4259 15.7392 23.4052 15.5914 23.3565 15.4519C23.3078 15.3123 23.232 15.1837 23.1335 15.0735C22.1583 13.9951 20.9663 13.1348 19.6355 12.549C20.4336 11.5918 20.8695 10.3843 20.867 9.13803C20.8658 7.71484 20.3001 6.35026 19.2939 5.34377C18.2876 4.33729 16.9232 3.77112 15.5 3.76953C14.0766 3.77072 12.7118 4.33671 11.7052 5.34324C10.6987 6.34978 10.1327 7.71458 10.1315 9.13803C10.1315 10.404 10.5695 11.589 11.339 12.525C7.72704 14.145 5.27454 17.7855 5.27454 21.8625Z" fill="#D0BFAC"/>
</g>
<defs>
<clipPath id="clip0_800_513">
<rect width="30" height="30" fill="white" transform="translate(0.5)"/>
</clipPath>
</defs>
</svg>
