<svg width="30" height="30" viewBox="0 0 30 30" fill="none" xmlns="http://www.w3.org/2000/svg">
<path d="M12.9246 7.96908C12.9825 7.96908 13.0415 7.95013 13.091 7.91011C13.3427 7.70055 14.0325 7.21293 15.013 7.21504C16.0029 7.21715 16.6948 7.71529 16.9465 7.92906C16.9717 7.95061 17.001 7.96697 17.0325 7.9772C17.0641 7.98743 17.0973 7.99134 17.1304 7.98869C17.1635 7.98605 17.1957 7.97691 17.2252 7.9618C17.2547 7.94668 17.281 7.92589 17.3025 7.90062C17.324 7.8754 17.3404 7.84617 17.3506 7.81462C17.3608 7.78306 17.3647 7.7498 17.3621 7.71674C17.3594 7.68367 17.3503 7.65145 17.3352 7.62193C17.3201 7.5924 17.2993 7.56614 17.274 7.54466C17.056 7.3593 16.798 7.19187 16.5274 7.06126C16.0482 6.82958 15.5385 6.71163 15.014 6.71058C14.4948 6.70952 13.9893 6.82325 13.5133 7.04864C13.2437 7.17608 12.9857 7.34034 12.7666 7.52254C12.6592 7.61204 12.6445 7.77107 12.734 7.8785C12.7824 7.9375 12.853 7.96803 12.9246 7.96908ZM16.4505 8.86741C16.5147 8.86741 16.5789 8.84319 16.6295 8.7937C16.7285 8.69576 16.7295 8.53569 16.6316 8.43669C16.4347 8.23659 15.8849 7.77007 15.0435 7.76163C14.6454 7.75741 14.2641 7.85641 13.9103 8.05651C13.7239 8.16077 13.5459 8.29662 13.4069 8.43669C13.3089 8.53569 13.31 8.69576 13.409 8.7937C13.508 8.89164 13.6681 8.89059 13.766 8.79159C13.8882 8.66732 14.3368 8.26607 15.0182 8.26607H15.0361C15.708 8.27345 16.1503 8.67048 16.2704 8.79159C16.2938 8.81562 16.3218 8.8347 16.3527 8.84772C16.3837 8.86075 16.4169 8.86744 16.4505 8.86741ZM15.0298 8.87793C14.5001 8.87793 14.142 9.16123 14.0125 9.28443C13.9113 9.38026 13.9071 9.54033 14.003 9.64144C14.0265 9.66641 14.0549 9.6863 14.0864 9.69989C14.118 9.71347 14.1519 9.72046 14.1862 9.72042C14.2509 9.72046 14.3132 9.69557 14.36 9.65093C14.4274 9.58774 14.6749 9.38029 15.0372 9.38345C15.3689 9.38556 15.5985 9.56037 15.6806 9.63408C15.7053 9.65637 15.7341 9.67357 15.7654 9.68468C15.7967 9.6958 15.8299 9.70061 15.8631 9.69885C15.8962 9.69709 15.9287 9.68879 15.9587 9.67442C15.9887 9.66005 16.0155 9.6399 16.0376 9.61513C16.1313 9.51192 16.1229 9.35289 16.0197 9.25917C15.8944 9.1465 15.5469 8.88215 15.0414 8.87793H15.0298ZM27.0041 12.639V11.3499H21.4377V12.639H23.5763V14.1034C22.7703 14.3282 22.1342 14.9634 21.9081 15.7689H19.2561C19.0167 14.2071 17.9313 12.9203 16.484 12.3924V11.7002C16.484 10.8912 15.8281 10.2353 15.0191 10.2353C14.2101 10.2353 13.5543 10.8912 13.5543 11.7002V12.3924C12.1047 12.9211 11.0182 14.2113 10.7811 15.7764H8.13228C7.90804 14.9673 7.27045 14.3289 6.46191 14.1034V12.639H8.60059V11.3499H3.03418V12.639H5.17285V14.1034C4.16032 14.3858 3.41504 15.3158 3.41504 16.4172C3.41504 17.7418 4.49272 18.8195 5.81738 18.8195C6.91739 18.8195 7.84643 18.0761 8.13014 17.0655H10.7811C10.8247 17.3535 10.8979 17.6363 10.9994 17.9094C10.3008 18.0312 9.44653 18.3199 8.70717 18.9755C7.6325 19.9285 7.08761 21.3842 7.08761 23.3022H8.37667C8.37667 21.7747 8.77262 20.6462 9.5535 19.948C10.2547 19.3209 11.1406 19.1589 11.6953 19.1244C12.4819 20.0897 13.6797 20.7074 15.0191 20.7074C16.3586 20.7074 17.5563 20.0897 18.3429 19.1244C18.8977 19.1589 19.7835 19.3209 20.4848 19.948C21.2657 20.6462 21.6616 21.7747 21.6616 23.3022H22.9507C22.9507 21.3842 22.4057 19.9285 21.3311 18.9755C20.5917 18.3199 19.7375 18.0312 19.0389 17.9094C19.1412 17.6339 19.2147 17.3486 19.2582 17.058H21.906C22.1872 18.0724 23.1181 18.8196 24.2209 18.8196C25.5455 18.8196 26.6232 17.7419 26.6232 16.4172C26.6232 15.3158 25.8779 14.3858 24.8654 14.1034V12.639L27.0041 12.639ZM5.81741 17.5304C5.20356 17.5304 4.70413 17.031 4.70413 16.4172C4.70413 15.8033 5.20356 15.3039 5.81741 15.3039C6.43127 15.3039 6.93069 15.8033 6.93069 16.4172C6.93069 17.031 6.43127 17.5304 5.81741 17.5304ZM15.0191 19.3011C13.431 19.3011 12.1389 18.0091 12.1389 16.4209C12.1389 14.8328 13.431 13.5407 15.0191 13.5407C16.6073 13.5407 17.8993 14.8328 17.8993 16.4209C17.8993 18.0091 16.6073 19.3011 15.0191 19.3011ZM25.3341 16.4172C25.3341 17.031 24.8347 17.5304 24.2209 17.5304C23.607 17.5304 23.1076 17.031 23.1076 16.4172C23.1076 15.8033 23.607 15.3039 24.2209 15.3039C24.8347 15.3039 25.3341 15.8033 25.3341 16.4172Z" fill="#D0BFAC"/>
</svg>
