<svg width="30" height="30" viewBox="0 0 30 30" fill="none" xmlns="http://www.w3.org/2000/svg">
<path d="M15 28.1895C13.2188 28.1895 11.4932 27.8408 9.86719 27.1523C8.29688 26.4873 6.88477 25.5381 5.6748 24.3252C4.46484 23.1152 3.5127 21.7031 2.84766 20.1328C2.15918 18.5068 1.81055 16.7812 1.81055 15C1.81055 13.2188 2.15918 11.4932 2.84766 9.86719C3.5127 8.29688 4.46191 6.88477 5.6748 5.6748C6.88477 4.46484 8.29688 3.5127 9.86719 2.84766C11.4932 2.15918 13.2188 1.81055 15 1.81055C16.9248 1.81055 18.7793 2.21484 20.5137 3.01465C22.1895 3.78809 23.6602 4.88086 24.8877 6.26953L23.7891 7.23926C21.5625 4.71973 18.3604 3.27539 15 3.27539C8.53418 3.27539 3.27539 8.53418 3.27539 15C3.27539 21.4658 8.53418 26.7246 15 26.7246C20.4375 26.7246 25.125 23.0391 26.3994 17.7598L27.8232 18.1025C27.4805 19.5293 26.9004 20.8828 26.1035 22.1221C25.3213 23.3379 24.3516 24.4131 23.2178 25.3184C22.0752 26.2295 20.8008 26.9414 19.4268 27.4307C18.0088 27.9316 16.5205 28.1895 15 28.1895Z" fill="#D0BFAC"/>
<path d="M28.8311 22.3008L26.9355 18.6357L23.2705 20.5312L22.7285 19.4824L27.4395 17.0449L29.877 21.7588L28.8311 22.3008Z" fill="#D0BFAC"/>
<path d="M5.44336 16.9395L7.01953 16.749C7.06934 17.1504 7.2041 17.458 7.42383 17.6689C7.64355 17.8828 7.91016 17.9883 8.22363 17.9883C8.56055 17.9883 8.8418 17.8594 9.07324 17.6045C9.30176 17.3496 9.41895 17.0068 9.41895 16.5732C9.41895 16.1631 9.30762 15.8408 9.08789 15.6006C8.86816 15.3604 8.59863 15.2402 8.28223 15.2402C8.07422 15.2402 7.8252 15.2813 7.53516 15.3633L7.71387 14.0361C8.15332 14.0479 8.49023 13.9512 8.72168 13.749C8.95313 13.5469 9.07031 13.2773 9.07031 12.9404C9.07031 12.6533 8.98535 12.4277 8.81543 12.2578C8.64551 12.0879 8.41992 12.0029 8.13867 12.0029C7.86035 12.0029 7.62305 12.0996 7.42676 12.293C7.23047 12.4863 7.11035 12.7676 7.06641 13.1396L5.56641 12.8848C5.67187 12.3721 5.82715 11.9619 6.03809 11.6543C6.24902 11.3467 6.54199 11.1064 6.91992 10.9307C7.29785 10.7549 7.71973 10.667 8.18555 10.667C8.98535 10.667 9.62695 10.9219 10.1104 11.4316C10.5088 11.8477 10.708 12.3193 10.708 12.8467C10.708 13.5908 10.3008 14.1885 9.48633 14.6309C9.97266 14.7363 10.3623 14.9678 10.6523 15.3311C10.9453 15.6943 11.0889 16.1338 11.0889 16.6465C11.0889 17.3906 10.8164 18.0264 10.2715 18.5537C9.72656 19.0752 9.04688 19.3359 8.23535 19.3359C7.46777 19.3359 6.8291 19.1162 6.32227 18.6738C5.81836 18.2314 5.52539 17.6514 5.44336 16.9395ZM17.6162 12.7793L16.04 12.9521C16.002 12.627 15.9023 12.3896 15.7383 12.2344C15.5771 12.0791 15.3662 12.0029 15.1055 12.0029C14.7627 12.0029 14.4697 12.1582 14.2324 12.4658C13.9951 12.7734 13.8457 13.418 13.7842 14.3965C14.1885 13.9189 14.6924 13.6787 15.2959 13.6787C15.9756 13.6787 16.5586 13.9365 17.042 14.4551C17.5254 14.9736 17.7686 15.6416 17.7686 16.459C17.7686 17.3291 17.5137 18.0264 17.0039 18.5508C16.4941 19.0752 15.8379 19.3389 15.041 19.3389C14.1826 19.3389 13.4795 19.0049 12.9258 18.3398C12.3721 17.6748 12.0967 16.582 12.0967 15.0645C12.0967 13.5088 12.3838 12.3867 12.9609 11.6982C13.5352 11.0098 14.2852 10.667 15.2022 10.667C15.8467 10.667 16.3799 10.8486 16.8047 11.209C17.2324 11.5664 17.502 12.0908 17.6162 12.7793ZM13.9248 16.3301C13.9248 16.8604 14.0479 17.2676 14.291 17.5547C14.5342 17.8418 14.8125 17.9854 15.126 17.9854C15.4277 17.9854 15.6797 17.8682 15.8789 17.6309C16.0811 17.3965 16.1807 17.0098 16.1807 16.4707C16.1807 15.917 16.0723 15.5127 15.8555 15.2578C15.6387 15 15.3691 14.8711 15.0439 14.8711C14.7305 14.8711 14.4668 14.9941 14.25 15.2402C14.0332 15.4893 13.9248 15.8496 13.9248 16.3301ZM21.4512 10.6641C22.2744 10.6641 22.916 10.957 23.3818 11.5459C23.9355 12.2402 24.2109 13.3945 24.2109 15.0059C24.2109 16.6113 23.9326 17.7686 23.376 18.4717C22.916 19.0518 22.2744 19.3418 21.4512 19.3418C20.625 19.3418 19.957 19.0254 19.4531 18.3896C18.9463 17.7539 18.6943 16.623 18.6943 14.9912C18.6943 13.3916 18.9727 12.2402 19.5293 11.5371C19.9893 10.9541 20.6279 10.6641 21.4512 10.6641ZM21.4512 12.0146C21.2549 12.0146 21.0791 12.0762 20.9238 12.2021C20.7686 12.3281 20.6484 12.5537 20.5635 12.876C20.4522 13.2979 20.3965 14.0068 20.3965 15.0029C20.3965 15.999 20.4463 16.6846 20.5459 17.0566C20.6455 17.4287 20.7715 17.6777 20.9268 17.8008C21.0791 17.9238 21.2549 17.9854 21.4512 17.9854C21.6475 17.9854 21.8232 17.9238 21.9785 17.7979C22.1338 17.6719 22.2539 17.4463 22.3389 17.124C22.4502 16.708 22.5059 15.999 22.5059 15.0029C22.5059 14.0068 22.4561 13.3213 22.3564 12.9492C22.2568 12.5771 22.1309 12.3281 21.9756 12.2021C21.8232 12.0762 21.6475 12.0146 21.4512 12.0146Z" fill="#D0BFAC"/>
<path d="M24.3838 9.63867C24.3838 9.12598 24.5654 8.68945 24.9258 8.3291C25.2861 7.96875 25.7227 7.79004 26.2324 7.79004C26.7422 7.79004 27.1787 7.97168 27.5391 8.33203C27.8994 8.69238 28.0811 9.12891 28.0811 9.63867C28.0811 10.1484 27.8994 10.585 27.5391 10.9453C27.1787 11.3057 26.7422 11.4873 26.2324 11.4873C25.7227 11.4873 25.2861 11.3057 24.9258 10.9453C24.5654 10.582 24.3838 10.1484 24.3838 9.63867ZM25.3447 9.63867C25.3447 9.88184 25.4326 10.0898 25.6055 10.2656C25.7783 10.4414 25.9893 10.5264 26.2324 10.5264C26.4756 10.5264 26.6836 10.4385 26.8594 10.2656C27.0352 10.0928 27.1201 9.88184 27.1201 9.63867C27.1201 9.39551 27.0322 9.1875 26.8594 9.01172C26.6865 8.83594 26.4756 8.75098 26.2324 8.75098C25.9893 8.75098 25.7813 8.83887 25.6055 9.01172C25.4297 9.18457 25.3447 9.39258 25.3447 9.63867Z" fill="#D0BFAC"/>
</svg>
