<svg width="20" height="21" viewBox="0 0 20 21" fill="none" xmlns="http://www.w3.org/2000/svg">
<path d="M2.08325 10.8991C2.08325 7.16714 2.08325 5.30116 3.24262 4.14179C4.40199 2.98242 6.26797 2.98242 9.99992 2.98242C13.7318 2.98242 15.5978 2.98242 16.7573 4.14179C17.9166 5.30116 17.9166 7.16714 17.9166 10.8991C17.9166 14.631 17.9166 16.497 16.7573 17.6564C15.5978 18.8158 13.7318 18.8158 9.99992 18.8158C6.26797 18.8158 4.40199 18.8158 3.24262 17.6564C2.08325 16.497 2.08325 14.631 2.08325 10.8991Z" stroke="white" stroke-linejoin="round"/>
<path d="M14.1054 7.58887H11.6513C10.7814 7.58887 10.0744 8.29062 10.068 9.16047L9.99694 18.7559M8.40161 12.5683H12.4039" stroke="white" stroke-linecap="round" stroke-linejoin="round"/>
</svg>
