<svg width="20" height="21" viewBox="0 0 20 21" fill="none" xmlns="http://www.w3.org/2000/svg">
<path d="M2.08325 10.8991C2.08325 7.16714 2.08325 5.30116 3.24262 4.14179C4.40199 2.98242 6.26797 2.98242 9.99992 2.98242C13.7318 2.98242 15.5978 2.98242 16.7573 4.14179C17.9166 5.30116 17.9166 7.16714 17.9166 10.8991C17.9166 14.631 17.9166 16.497 16.7573 17.6564C15.5978 18.8158 13.7318 18.8158 9.99992 18.8158C6.26797 18.8158 4.40199 18.8158 3.24262 17.6564C2.08325 16.497 2.08325 14.631 2.08325 10.8991Z" stroke="white" stroke-linejoin="round"/>
<path d="M13.75 10.8994C13.75 12.9705 12.0711 14.6494 10 14.6494C7.92893 14.6494 6.25 12.9705 6.25 10.8994C6.25 8.82835 7.92893 7.14941 10 7.14941C12.0711 7.14941 13.75 8.82835 13.75 10.8994Z" stroke="white"/>
<path d="M14.5904 6.31641H14.5828" stroke="white" stroke-linecap="round" stroke-linejoin="round"/>
</svg>
