<svg width="20" height="21" viewBox="0 0 20 21" fill="none" xmlns="http://www.w3.org/2000/svg">
<path d="M2.0835 10.8991C2.0835 7.16714 2.0835 5.30116 3.24286 4.14179C4.40224 2.98242 6.26821 2.98242 10.0001 2.98242C13.7321 2.98242 15.5981 2.98242 16.7575 4.14179C17.9168 5.30116 17.9168 7.16714 17.9168 10.8991C17.9168 14.631 17.9168 16.497 16.7575 17.6564C15.5981 18.8158 13.7321 18.8158 10.0001 18.8158C6.26821 18.8158 4.40224 18.8158 3.24286 17.6564C2.0835 16.497 2.0835 14.631 2.0835 10.8991Z" stroke="white" stroke-linecap="round" stroke-linejoin="round"/>
<path d="M5.8335 15.0658L9.32815 11.5712M9.32815 11.5712L5.8335 6.73242H8.14831L10.6722 10.227M9.32815 11.5712L11.852 15.0658H14.1668L10.6722 10.227M14.1668 6.73242L10.6722 10.227" stroke="white" stroke-linecap="round" stroke-linejoin="round"/>
</svg>
